{
  "accessors": [
    {
      "bufferView": 1,
      "componentType": 5126,
      "count": 5248,
      "max": [
        0.5535485148429871,
        -0.27050676941871643,
        0.6059464812278748
      ],
      "min": [
        -0.5535484552383423,
        -0.4196327030658722,
        0.35248222947120667
      ],
      "type": "VEC3"
    },
    {
      "bufferView": 1,
      "byteOffset": 62976,
      "componentType": 5126,
      "count": 5248,
      "max": [
        0.9838013648986816,
        0.9866368770599365,
        0.9867511987686157
      ],
      "min": [
        -0.9838016629219055,
        -0.9919437170028687,
        -0.9867522120475769
      ],
      "type": "VEC3"
    },
    {
      "bufferView": 0,
      "componentType": 5125,
      "count": 7872,
      "type": "SCALAR"
    },
    {
      "bufferView": 1,
      "byteOffset": 125952,
      "componentType": 5126,
      "count": 1600,
      "max": [
        1.3663297891616821,
        2.0111846923828125,
        0.36282408237457275
      ],
      "min": [
        -1.946061372756958,
        0.5255179405212402,
        -4.399194240570068
      ],
      "type": "VEC3"
    },
    {
      "bufferView": 1,
      "byteOffset": 145152,
      "componentType": 5126,
      "count": 1600,
      "max": [
        0.9655274152755737,
        0.9444083571434021,
        0.9884381890296936
      ],
      "min": [
        -0.9967308044433594,
        -0.9405526518821716,
        -0.9588022232055664
      ],
      "type": "VEC3"
    },
    {
      "bufferView": 0,
      "byteOffset": 31488,
      "componentType": 5125,
      "count": 2400,
      "type": "SCALAR"
    },
    {
      "bufferView": 1,
      "byteOffset": 164352,
      "componentType": 5126,
      "count": 1600,
      "max": [
        1.068443775177002,
        0.8251163363456726,
        0.26615041494369507
      ],
      "min": [
        -2.3516013622283936,
        -0.8462202548980713,
        -4.308686256408691
      ],
      "type": "VEC3"
    },
    {
      "bufferView": 1,
      "byteOffset": 183552,
      "componentType": 5126,
      "count": 1600,
      "max": [
        0.965526819229126,
        0.9741021990776062,
        0.9422786235809326
      ],
      "min": [
        -0.9967309236526489,
        -0.9693964123725891,
        -0.9432384967803955
      ],
      "type": "VEC3"
    },
    {
      "bufferView": 0,
      "byteOffset": 41088,
      "componentType": 5125,
      "count": 2400,
      "type": "SCALAR"
    },
    {
      "bufferView": 1,
      "byteOffset": 202752,
      "componentType": 5126,
      "count": 1600,
      "max": [
        1.1333733797073364,
        0.20348769426345825,
        0.3183799684047699
      ],
      "min": [
        -2.0980913639068604,
        -1.2821787595748901,
        -4.2171759605407715
      ],
      "type": "VEC3"
    },
    {
      "bufferView": 1,
      "byteOffset": 221952,
      "componentType": 5126,
      "count": 1600,
      "max": [
        0.9655270576477051,
        0.9444082975387573,
        0.9884382486343384
      ],
      "min": [
        -0.9967308044433594,
        -0.9405527710914612,
        -0.9588020443916321
      ],
      "type": "VEC3"
    },
    {
      "bufferView": 0,
      "byteOffset": 50688,
      "componentType": 5125,
      "count": 2400,
      "type": "SCALAR"
    },
    {
      "bufferView": 1,
      "byteOffset": 241152,
      "componentType": 5126,
      "count": 1600,
      "max": [
        0.5510960221290588,
        0.3108631670475006,
        1.437867522239685
      ],
      "min": [
        -0.6713401675224304,
        -0.5602303147315979,
        -0.0690607875585556
      ],
      "type": "VEC3"
    },
    {
      "bufferView": 1,
      "byteOffset": 260352,
      "componentType": 5126,
      "count": 1600,
      "max": [
        0.9863399267196655,
        0.999367892742157,
        0.9468878507614136
      ],
      "min": [
        -0.9819543957710266,
        -0.9462721347808838,
        -0.9804103970527649
      ],
      "type": "VEC3"
    },
    {
      "bufferView": 0,
      "byteOffset": 60288,
      "componentType": 5125,
      "count": 2400,
      "type": "SCALAR"
    },
    {
      "bufferView": 1,
      "byteOffset": 279552,
      "componentType": 5126,
      "count": 674,
      "max": [
        0.8000792264938354,
        0.32557374238967896,
        0.800079345703125
      ],
      "min": [
        -0.8000792860984802,
        -0.38900506496429443,
        -0.8000792264938354
      ],
      "type": "VEC3"
    },
    {
      "bufferView": 1,
      "byteOffset": 287640,
      "componentType": 5126,
      "count": 674,
      "max": [
        0.9998327493667603,
        1.0,
        0.9998327493667603
      ],
      "min": [
        -0.999832808971405,
        -1.0,
        -0.9998327493667603
      ],
      "type": "VEC3"
    },
    {
      "bufferView": 0,
      "byteOffset": 69888,
      "componentType": 5125,
      "count": 3840,
      "type": "SCALAR"
    },
    {
      "bufferView": 1,
      "byteOffset": 295728,
      "componentType": 5126,
      "count": 1937,
      "max": [
        0.802068829536438,
        0.7314666509628296,
        1.0310453176498413
      ],
      "min": [
        -2.928744077682495,
        -0.708819568157196,
        -4.0288310050964355
      ],
      "type": "VEC3"
    },
    {
      "bufferView": 1,
      "byteOffset": 318972,
      "componentType": 5126,
      "count": 1937,
      "max": [
        0.9983081221580505,
        0.9998427033424377,
        0.9996625781059265
      ],
      "min": [
        -0.9983777403831482,
        -0.9999638199806213,
        -0.9994707703590393
      ],
      "type": "VEC3"
    },
    {
      "bufferView": 0,
      "byteOffset": 85248,
      "componentType": 5125,
      "count": 11136,
      "type": "SCALAR"
    },
    {
      "bufferView": 1,
      "byteOffset": 342216,
      "componentType": 5126,
      "count": 386,
      "max": [
        0.8395062685012817,
        0.663502037525177,
        0.8395062685012817
      ],
      "min": [
        -0.8395062685012817,
        -0.8548623323440552,
        -0.8395062685012817
      ],
      "type": "VEC3"
    },
    {
      "bufferView": 1,
      "byteOffset": 346848,
      "componentType": 5126,
      "count": 386,
      "max": [
        1.0,
        1.0,
        1.0
      ],
      "min": [
        -1.0,
        -1.0,
        -1.0
      ],
      "type": "VEC3"
    },
    {
      "bufferView": 0,
      "byteOffset": 129792,
      "componentType": 5125,
      "count": 2304,
      "type": "SCALAR"
    },
    {
      "bufferView": 1,
      "byteOffset": 351480,
      "componentType": 5126,
      "count": 386,
      "max": [
        0.8395062685012817,
        0.8395062685012817,
        0.8395062685012817
      ],
      "min": [
        -0.8395062685012817,
        -0.8395062685012817,
        -0.8395062685012817
      ],
      "type": "VEC3"
    },
    {
      "bufferView": 1,
      "byteOffset": 356112,
      "componentType": 5126,
      "count": 386,
      "max": [
        1.0,
        1.0,
        1.0
      ],
      "min": [
        -1.0,
        -1.0,
        -1.0
      ],
      "type": "VEC3"
    },
    {
      "bufferView": 0,
      "byteOffset": 139008,
      "componentType": 5125,
      "count": 2304,
      "type": "SCALAR"
    },
    {
      "bufferView": 1,
      "byteOffset": 360744,
      "componentType": 5126,
      "count": 386,
      "max": [
        0.8056135773658752,
        0.8395062685012817,
        0.8056135773658752
      ],
      "min": [
        -0.80561363697052,
        -0.8395062685012817,
        -0.8056135773658752
      ],
      "type": "VEC3"
    },
    {
      "bufferView": 1,
      "byteOffset": 365376,
      "componentType": 5126,
      "count": 386,
      "max": [
        0.9997294545173645,
        1.0,
        0.9997294545173645
      ],
      "min": [
        -0.9997294545173645,
        -1.0,
        -0.9997294545173645
      ],
      "type": "VEC3"
    },
    {
      "bufferView": 0,
      "byteOffset": 148224,
      "componentType": 5125,
      "count": 2304,
      "type": "SCALAR"
    },
    {
      "bufferView": 1,
      "byteOffset": 370008,
      "componentType": 5126,
      "count": 386,
      "max": [
        0.8395062685012817,
        0.8395062685012817,
        0.8395062685012817
      ],
      "min": [
        -0.8395062685012817,
        -0.8395062685012817,
        -0.8395062685012817
      ],
      "type": "VEC3"
    },
    {
      "bufferView": 1,
      "byteOffset": 374640,
      "componentType": 5126,
      "count": 386,
      "max": [
        1.0,
        1.0,
        1.0
      ],
      "min": [
        -1.0,
        -1.0,
        -1.0
      ],
      "type": "VEC3"
    },
    {
      "bufferView": 0,
      "byteOffset": 157440,
      "componentType": 5125,
      "count": 2304,
      "type": "SCALAR"
    },
    {
      "bufferView": 1,
      "byteOffset": 379272,
      "componentType": 5126,
      "count": 772,
      "max": [
        0.98656165599823,
        0.6566848158836365,
        1.553804874420166
      ],
      "min": [
        -2.3056845664978027,
        -2.360440492630005,
        -0.9865615367889404
      ],
      "type": "VEC3"
    },
    {
      "bufferView": 1,
      "byteOffset": 388536,
      "componentType": 5126,
      "count": 772,
      "max": [
        0.9977056384086609,
        1.0,
        0.9963549971580505
      ],
      "min": [
        -0.9979398846626282,
        -1.0,
        -0.996224582195282
      ],
      "type": "VEC3"
    },
    {
      "bufferView": 0,
      "byteOffset": 166656,
      "componentType": 5125,
      "count": 4608,
      "type": "SCALAR"
    }
  ],
  "asset": {
    "extras": {
      "author": "stamvrahnos (https://sketchfab.com/stamvrahnos)",
      "license": "CC-BY-4.0 (http://creativecommons.org/licenses/by/4.0/)",
      "source": "https://sketchfab.com/3d-models/bee-574d8a32b5f1446c9285334239949007",
      "title": "Bee"
    },
    "generator": "Sketchfab-16.68.0",
    "version": "2.0"
  },
  "bufferViews": [
    {
      "buffer": 0,
      "byteLength": 185088,
      "name": "floatBufferViews",
      "target": 34963
    },
    {
      "buffer": 0,
      "byteLength": 397800,
      "byteOffset": 185088,
      "byteStride": 12,
      "name": "floatBufferViews",
      "target": 34962
    }
  ],
  "buffers": [
    {
      "byteLength": 582888,
      "uri": "scene.bin"
    }
  ],
  "extensionsUsed": [
    "KHR_materials_specular",
    "KHR_materials_clearcoat"
  ],
  "materials": [
    {
      "doubleSided": true,
      "extensions": {
        "KHR_materials_specular": {
          "specularColorFactor": [
            1.0,
            1.0,
            1.0
          ],
          "specularFactor": 0.2739595304327263
        }
      },
      "name": "Material_001",
      "pbrMetallicRoughness": {
        "baseColorFactor": [
          0.00515523,
          0.00245325,
          0.0,
          1.0
        ],
        "metallicFactor": 0.0,
        "roughnessFactor": 0.24357584525631865
      }
    },
    {
      "doubleSided": true,
      "extensions": {
        "KHR_materials_clearcoat": {
          "clearcoatFactor": 1.0,
          "clearcoatRoughnessFactor": 0.04
        },
        "KHR_materials_specular": {
          "specularColorFactor": [
            1.0,
            1.0,
            1.0
          ],
          "specularFactor": 0.839096074713909
        }
      },
      "name": "Material_003",
      "pbrMetallicRoughness": {
        "baseColorFactor": [
          0.8655841672802581,
          0.8655841672802581,
          0.8655841672802581,
          1.0
        ],
        "metallicFactor": 0.0,
        "roughnessFactor": 0.5717196451615215
      }
    },
    {
      "doubleSided": true,
      "name": "Material",
      "pbrMetallicRoughness": {
        "baseColorFactor": [
          0.800266,
          0.532993,
          0.0,
          1.0
        ],
        "metallicFactor": 0.0,
        "roughnessFactor": 0.1828084749035033
      }
    },
    {
      "doubleSided": true,
      "name": "Material_002",
      "pbrMetallicRoughness": {
        "baseColorFactor": [
          0.0,
          0.0,
          0.0,
          1.0
        ],
        "metallicFactor": 0.0,
        "roughnessFactor": 0.214286
      }
    }
  ],
  "meshes": [
    {
      "name": "B__zierCurve_008",
      "primitives": [
        {
          "attributes": {
            "NORMAL": 1,
            "POSITION": 0
          },
          "indices": 2,
          "material": 0,
          "mode": 4
        }
      ]
    },
    {
      "name": "Mesh_004",
      "primitives": [
        {
          "attributes": {
            "NORMAL": 4,
            "POSITION": 3
          },
          "indices": 5,
          "material": 0,
          "mode": 4
        }
      ]
    },
    {
      "name": "Mesh_003",
      "primitives": [
        {
          "attributes": {
            "NORMAL": 7,
            "POSITION": 6
          },
          "indices": 8,
          "material": 0,
          "mode": 4
        }
      ]
    },
    {
      "name": "Mesh_002",
      "primitives": [
        {
          "attributes": {
            "NORMAL": 10,
            "POSITION": 9
          },
          "indices": 11,
          "material": 0,
          "mode": 4
        }
      ]
    },
    {
      "name": "B__zierCurve",
      "primitives": [
        {
          "attributes": {
            "NORMAL": 13,
            "POSITION": 12
          },
          "indices": 14,
          "material": 0,
          "mode": 4
        }
      ]
    },
    {
      "name": "Cube_009",
      "primitives": [
        {
          "attributes": {
            "NORMAL": 16,
            "POSITION": 15
          },
          "indices": 17,
          "material": 0,
          "mode": 4
        }
      ]
    },
    {
      "name": "Cube_008",
      "primitives": [
        {
          "attributes": {
            "NORMAL": 19,
            "POSITION": 18
          },
          "indices": 20,
          "material": 1,
          "mode": 4
        }
      ]
    },
    {
      "name": "Cube_003",
      "primitives": [
        {
          "attributes": {
            "NORMAL": 22,
            "POSITION": 21
          },
          "indices": 23,
          "material": 2,
          "mode": 4
        }
      ]
    },
    {
      "name": "Cube_001",
      "primitives": [
        {
          "attributes": {
            "NORMAL": 25,
            "POSITION": 24
          },
          "indices": 26,
          "material": 0,
          "mode": 4
        }
      ]
    },
    {
      "name": "Cube_004",
      "primitives": [
        {
          "attributes": {
            "NORMAL": 28,
            "POSITION": 27
          },
          "indices": 29,
          "material": 0,
          "mode": 4
        }
      ]
    },
    {
      "name": "Cube_002",
      "primitives": [
        {
          "attributes": {
            "NORMAL": 31,
            "POSITION": 30
          },
          "indices": 32,
          "material": 2,
          "mode": 4
        }
      ]
    },
    {
      "name": "Cube_007",
      "primitives": [
        {
          "attributes": {
            "NORMAL": 34,
            "POSITION": 33
          },
          "indices": 35,
          "material": 3,
          "mode": 4
        }
      ]
    }
  ],
  "nodes": [
    {
      "children": [
        1
      ],
      "matrix": [
        1.0,
        0.0,
        0.0,
        0.0,
        0.0,
        2.220446049250313e-16,
        -1.0,
        0.0,
        0.0,
        1.0,
        2.220446049250313e-16,
        0.0,
        0.0,
        0.0,
        0.0,
        1.0
      ],
      "name": "Sketchfab_model"
    },
    {
      "children": [
        2
      ],
      "name": "USDRoot"
    },
    {
      "children": [
        3,
        5,
        7,
        9,
        11,
        13,
        15,
        17,
        19,
        21,
        23,
        25
      ],
      "name": "root"
    },
    {
      "children": [
        4
      ],
      "matrix": [
        0.29756754636764526,
        0.0,
        0.0,
        0.0,
        0.0,
        0.29756754636764526,
        0.0,
        0.0,
        0.0,
        0.0,
        0.29756754636764526,
        0.0,
        1.4901161193847656e-08,
        1.73391854763031,
        -0.12176423519849777,
        1.0
      ],
      "name": "B__zierCurve_004"
    },
    {
      "mesh": 0,
      "name": "B__zierCurve_008"
    },
    {
      "children": [
        6
      ],
      "matrix": [
        0.10126993060112,
        -0.040898457169532776,
        -0.280425101518631,
        0.0,
        -4.419338850425447e-08,
        0.2977922260761261,
        -0.04343137517571449,
        0.0,
        0.2833917737007141,
        0.014615089632570744,
        0.10020975768566132,
        0.0,
        0.5434095859527588,
        -0.41427645087242126,
        -0.6755192279815674,
        1.0
      ],
      "name": "B__zierCurve_002"
    },
    {
      "mesh": 1,
      "name": "Mesh_004"
    },
    {
      "children": [
        8
      ],
      "matrix": [
        0.12756353616714478,
        0.22766156494617462,
        -0.14988082647323608,
        0.0,
        -0.019637277349829674,
        0.17272892594337463,
        0.2456534057855606,
        0.0,
        0.2718610465526581,
        -0.09434741735458374,
        0.0880718007683754,
        0.0,
        0.5629769563674927,
        0.45448577404022217,
        -0.7333094477653503,
        1.0
      ],
      "name": "B__zierCurve_001"
    },
    {
      "mesh": 2,
      "name": "Mesh_003"
    },
    {
      "children": [
        10
      ],
      "matrix": [
        0.1012699082493782,
        -0.04788820445537567,
        -0.27931639552116394,
        0.0,
        -3.024254624506284e-08,
        0.2966148555278778,
        -0.05085400119423866,
        0.0,
        0.2833918035030365,
        0.0171128511428833,
        0.0998135358095169,
        0.0,
        0.5434095859527588,
        -0.570721447467804,
        -0.7943309545516968,
        1.0
      ],
      "name": "B__zierCurve_003"
    },
    {
      "mesh": 3,
      "name": "Mesh_002"
    },
    {
      "children": [
        12
      ],
      "matrix": [
        0.3661532700061798,
        0.19732077419757843,
        0.9093933701515198,
        0.0,
        0.33859315514564514,
        0.8820205926895142,
        -0.32771074771881104,
        0.0,
        -0.8667677640914917,
        0.42790669202804565,
        0.2561432421207428,
        0.0,
        0.5350950360298157,
        1.097989559173584,
        0.869642436504364,
        1.0
      ],
      "name": "B__zierCurve"
    },
    {
      "mesh": 4,
      "name": "B__zierCurve"
    },
    {
      "children": [
        14
      ],
      "matrix": [
        0.2980559766292572,
        5.244576856685141e-19,
        -8.315288528790352e-18,
        0.0,
        1.2683130346978368e-18,
        0.7150854468345642,
        0.0905633494257927,
        0.0,
        8.315288528790352e-18,
        -0.03744873031973839,
        0.2956940233707428,
        0.0,
        -7.161035738950182e-18,
        -1.995990514755249,
        -0.188529834151268,
        1.0
      ],
      "name": "Cube_006"
    },
    {
      "mesh": 5,
      "name": "Cube_009"
    },
    {
      "children": [
        16
      ],
      "matrix": [
        1.277090072631836,
        -0.011006901040673256,
        0.14796829223632813,
        0.0,
        -5.75984913098182e-08,
        1.2821382284164429,
        0.09537477046251297,
        0.0,
        0.015837030485272408,
        0.01011180691421032,
        -0.13593462109565735,
        0.0,
        1.38241446018219,
        0.10886150598526001,
        0.9419620633125305,
        1.0
      ],
      "name": "Cube_005"
    },
    {
      "mesh": 6,
      "name": "Cube_008"
    },
    {
      "children": [
        18
      ],
      "matrix": [
        1.1496937274932861,
        7.03383211114693e-19,
        -1.8937510994097193e-17,
        0.0,
        8.69057044653831e-19,
        1.4165767431259155,
        0.10537528991699219,
        0.0,
        1.8937510994097193e-17,
        -0.0852869525551796,
        1.1465259790420532,
        0.0,
        0.0,
        -0.3794012665748596,
        -0.04284030944108963,
        1.0
      ],
      "name": "Cube_003"
    },
    {
      "mesh": 7,
      "name": "Cube_003"
    },
    {
      "children": [
        20
      ],
      "matrix": [
        1.0404953956604004,
        6.36575658749118e-19,
        -1.713881833262921e-17,
        0.0,
        8.364047103587596e-19,
        1.3633530139923096,
        0.10141611844301224,
        0.0,
        1.713881833262921e-17,
        -0.07718636840581894,
        1.0376285314559937,
        0.0,
        0.0,
        0.18796378374099731,
        -0.0006355494260787964,
        1.0
      ],
      "name": "Cube_001"
    },
    {
      "mesh": 8,
      "name": "Cube_001"
    },
    {
      "children": [
        22
      ],
      "matrix": [
        1.182388186454773,
        7.233857307959323e-19,
        -1.9476046931899842e-17,
        0.0,
        1.0309143702442258e-18,
        1.6804068088531494,
        0.12500089406967163,
        0.0,
        1.9476046931899842e-17,
        -0.08771230280399323,
        1.1791303157806396,
        0.0,
        0.0,
        -0.6963126063346863,
        -0.0664144828915596,
        1.0
      ],
      "name": "Cube_004"
    },
    {
      "mesh": 9,
      "name": "Cube_004"
    },
    {
      "children": [
        24
      ],
      "matrix": [
        1.078253149986267,
        0.0,
        0.0,
        0.0,
        0.0,
        1.0377087593078613,
        0.0,
        0.0,
        0.0,
        0.0,
        1.078253149986267,
        0.0,
        0.0,
        0.7596002817153931,
        0.05653643608093262,
        1.0
      ],
      "name": "Cube_002"
    },
    {
      "mesh": 10,
      "name": "Cube_002"
    },
    {
      "children": [
        26
      ],
      "matrix": [
        0.33880457282066345,
        -0.317756325006485,
        -0.005375783424824476,
        0.0,
        0.29037657380104065,
        0.3063293397426605,
        0.19398553669452667,
        0.0,
        -0.12914901971817017,
        -0.14484411478042603,
        0.4220513105392456,
        0.0,
        0.5054739117622375,
        1.2864255905151367,
        0.4834875762462616,
        1.0
      ],
      "name": "Cube"
    },
    {
      "mesh": 11,
      "name": "Cube_007"
    }
  ],
  "scene": 0,
  "scenes": [
    {
      "name": "Sketchfab_Scene",
      "nodes": [
        0
      ]
    }
  ]
}
