<svg width="55" height="54" viewBox="0 0 55 54" fill="none" xmlns="http://www.w3.org/2000/svg">
<path d="M27.5 0C42.68 0 55 12.32 55 27.5C55 39.6 47.135 49.94 36.245 53.57C34.87 53.845 34.375 52.965 34.375 52.25C34.375 51.315 34.43 48.345 34.43 44.715C34.43 42.13 33.55 40.48 32.56 39.6C38.665 38.94 45.1 36.575 45.1 26.015C45.1 22.99 44.055 20.57 42.295 18.645C42.57 17.985 43.505 15.125 42.02 11.385C42.02 11.385 39.71 10.615 34.43 14.19C32.23 13.585 29.92 13.255 27.555 13.255C25.245 13.255 22.88 13.585 20.68 14.19C15.455 10.67 13.145 11.385 13.145 11.385C11.605 15.125 12.595 17.985 12.87 18.645C11.11 20.57 10.065 23.045 10.065 26.015C10.065 36.575 16.445 38.94 22.55 39.6C21.78 40.315 21.065 41.525 20.79 43.285C19.195 44 15.29 45.155 12.815 41.03C12.265 40.205 10.725 38.17 8.58 38.225C6.27 38.225 7.645 39.49 8.58 40.04C9.79 40.7 11.11 43.12 11.44 43.89C11.99 45.43 13.75 48.4 20.68 47.135C20.68 49.445 20.68 51.59 20.68 52.25C20.68 52.965 20.185 53.79 18.81 53.57C7.865 49.94 0 39.655 0 27.5C0 12.32 12.32 0 27.5 0Z" fill="#6C6C6C"/>
</svg>
