<svg version="1.1" id="Layer_1" xmlns="http://www.w3.org/2000/svg" xmlns:xlink="http://www.w3.org/1999/xlink" x="0px" y="0px"
	 width="100%" viewBox="0 0 1024 1024" enable-background="new 0 0 1024 1024" xml:space="preserve">
<path fill="#000000" opacity="1.000000" stroke="none" 
	d="
M530.140625,559.220032 
	C527.734680,560.373840 525.370117,560.881592 523.854187,562.804260 
	C526.644714,570.601379 526.661316,570.672852 534.691528,568.805664 
	C576.751770,559.025879 618.802551,549.205200 660.857483,539.402710 
	C669.264343,537.443176 677.658569,535.423950 686.092529,533.588074 
	C689.544434,532.836609 691.808777,531.242493 693.671936,528.003296 
	C700.943054,515.361694 710.734497,505.536102 725.340698,501.501404 
	C731.814209,499.713226 738.442322,500.019653 743.589966,503.810699 
	C749.985046,508.520416 756.326050,507.315186 763.012146,506.335449 
	C783.205811,503.376373 803.413818,500.571289 823.733337,498.549683 
	C836.631470,497.266449 849.471008,495.436768 862.477905,495.634338 
	C867.372009,495.708679 872.032654,496.777832 876.540833,498.605652 
	C882.770935,501.131622 886.576904,505.623352 887.307068,512.390930 
	C888.156860,520.267090 886.132812,526.966614 878.867676,531.222900 
	C872.869629,534.736877 866.175110,536.370178 859.431641,537.200134 
	C839.981262,539.593872 820.483398,541.605896 800.995117,543.682495 
	C799.037354,543.891052 797.015869,543.414124 795.027344,543.449646 
	C793.577759,543.475403 791.922302,543.523010 791.805847,545.662537 
	C792.812378,547.137207 794.170715,546.628601 795.417358,546.312256 
	C805.180542,543.834229 811.747864,548.536743 812.398560,558.503906 
	C813.351135,573.094543 802.997620,585.154480 788.281433,586.262207 
	C782.485779,586.698364 776.627380,586.806274 771.005676,584.679626 
	C769.464355,584.096558 767.798889,583.816833 766.612488,581.635986 
	C775.897705,573.224731 779.906860,562.501831 778.470337,550.022705 
	C777.885071,544.938416 776.439697,539.931091 771.939392,536.287903 
	C773.406860,542.636292 774.700989,548.934204 774.415649,555.477966 
	C774.216003,560.058105 773.353760,564.399780 771.499329,568.518494 
	C765.970703,580.797607 752.780579,583.430481 742.835632,574.245117 
	C736.894836,568.758118 734.285095,561.689514 733.687866,553.794983 
	C733.513245,551.486633 733.661011,549.153931 733.112488,546.861267 
	C729.652527,555.578369 731.433594,563.966248 735.524536,572.564453 
	C728.005676,576.044250 720.570435,573.937134 713.216248,574.441956 
	C721.265320,580.769043 730.632385,578.432373 741.040588,577.211243 
	C732.063049,589.174988 735.320923,599.873047 741.315186,610.696472 
	C734.794067,614.122803 728.443176,613.248230 722.175232,611.670105 
	C708.778809,608.297302 698.868164,599.748047 690.595642,589.226379 
	C688.127808,586.087585 686.058411,585.364502 682.259949,586.306458 
	C641.123840,596.507751 599.939697,606.515320 558.777466,616.611694 
	C556.211304,617.241089 553.718933,618.171143 550.932190,619.042664 
	C552.441040,627.041016 554.039734,634.956543 555.414124,642.910828 
	C558.975464,663.521606 559.045837,684.229980 557.462036,705.045471 
	C555.483826,731.044189 548.864441,755.768921 538.214417,779.479309 
	C534.043640,788.764832 529.224365,797.717834 523.433533,806.097656 
	C521.391968,809.051941 521.413635,811.012756 524.142822,813.743958 
	C539.157166,828.769287 546.690735,846.888000 545.268555,868.275024 
	C544.703430,876.773010 542.276489,884.932373 539.112061,892.845398 
	C538.445740,894.511658 537.810364,896.190308 536.936401,898.441101 
	C540.206726,898.441101 542.965759,898.589661 545.704651,898.417358 
	C565.145813,897.194397 583.859741,899.768921 601.255005,909.077393 
	C607.797913,912.578613 613.605530,917.092651 617.548462,923.492798 
	C624.038269,934.027100 624.300720,949.241516 607.534302,955.078552 
	C591.543762,960.645569 574.959717,961.895447 558.294189,961.074707 
	C536.000244,959.976868 514.042542,956.394714 492.746674,949.404724 
	C490.851807,948.782654 488.957489,948.140320 487.114441,947.382141 
	C469.915741,940.307373 466.184601,924.543335 478.337708,910.277161 
	C485.481567,901.891296 492.422852,893.380371 496.794312,883.108704 
	C500.634979,874.084290 502.113312,864.951721 498.183502,855.553711 
	C497.479340,853.869751 496.723450,852.186096 495.789429,850.623047 
	C490.047577,841.014465 488.701965,840.898499 480.425781,847.994568 
	C458.011292,867.212708 431.857269,878.583130 403.113464,884.370361 
	C379.209534,889.183167 355.291565,889.708923 331.380676,884.350281 
	C330.428375,884.136963 329.439240,884.088013 328.237762,883.932739 
	C326.124084,888.365967 328.145905,892.589722 328.743195,896.639038 
	C329.788177,903.723755 332.299713,910.455139 335.694092,916.836060 
	C338.753082,922.586487 340.754242,928.749878 342.566132,935.007751 
	C344.451508,941.519470 342.623627,946.804382 338.093719,951.412598 
	C329.642914,960.009277 318.759766,964.314148 307.688904,968.039124 
	C286.618988,975.128357 264.854309,977.550232 242.732590,976.228882 
	C234.269623,975.723389 225.950134,973.857483 218.268753,969.891968 
	C204.457672,962.762024 200.975082,947.031189 210.806747,934.880737 
	C221.976212,921.076965 237.140244,914.550659 254.236603,911.592529 
	C262.196228,910.215271 270.176819,910.849976 278.150665,910.635132 
	C280.128998,910.581787 282.157593,910.952087 284.779968,909.634521 
	C282.347595,894.757568 282.156647,879.466492 282.620209,863.313599 
	C257.884125,873.112610 233.211075,876.529419 207.755325,874.218140 
	C207.593948,871.698120 209.174393,871.493469 210.267822,870.898926 
	C228.428009,861.024475 242.932220,846.907898 256.250763,831.395996 
	C257.622223,829.798645 257.800232,828.313660 257.014404,826.376892 
	C248.878006,806.324097 247.234558,785.458557 249.344940,764.133362 
	C249.669891,760.849731 248.569321,758.851135 244.907104,758.254028 
	C234.114899,756.494324 224.385803,752.585449 217.452744,743.532166 
	C213.540741,738.423828 211.605530,732.779663 212.568344,726.295044 
	C214.316071,714.523621 223.773178,708.842102 234.839020,712.926941 
	C240.104691,714.870728 240.284134,714.668579 240.712738,709.226013 
	C241.009033,705.463562 241.704971,701.732544 242.227829,697.947632 
	C240.543777,696.771057 239.613434,697.976624 239.230453,699.225708 
	C236.814209,707.106140 230.159607,707.442749 223.636047,708.495117 
	C219.235474,709.205078 214.974548,710.770325 210.643951,711.925903 
	C193.836136,716.410706 176.964874,717.864075 159.991318,712.837769 
	C131.201736,704.312317 119.191025,678.350098 131.014862,650.588989 
	C139.832443,629.886230 155.812439,616.342102 175.002289,605.917969 
	C183.783249,601.147949 193.193558,597.770508 202.732529,593.867188 
	C201.002396,591.533813 198.650711,591.149841 196.578690,590.363953 
	C162.557648,577.460266 132.963455,558.317200 110.850731,528.891418 
	C95.562157,508.546692 85.736603,485.950226 83.521919,460.288818 
	C81.693993,439.108795 85.338341,419.337738 98.992813,402.567657 
	C112.629150,385.819885 131.047440,380.046173 152.071045,382.370605 
	C180.519089,385.515930 203.603226,400.237305 225.437164,417.357697 
	C231.197754,421.874664 236.595047,426.854675 242.164902,431.615326 
	C243.395767,432.667358 244.363205,434.196930 246.385956,433.993744 
	C248.132751,432.534393 246.873611,430.805450 246.454437,429.431580 
	C239.978867,408.206787 237.304459,386.440704 238.785614,364.398376 
	C242.401764,310.582733 262.288910,264.391785 304.342285,229.135818 
	C318.537354,217.235168 334.752350,208.808105 352.205078,202.723007 
	C358.250366,200.615250 358.269531,200.642365 356.057892,194.800552 
	C342.207184,158.214996 316.005524,133.371429 281.510071,116.424004 
	C279.118622,115.249107 276.669342,114.192436 274.256134,113.061218 
	C266.141479,109.257416 258.299438,107.730446 248.896149,109.984718 
	C232.590515,113.893707 216.112289,112.924362 201.060333,104.141365 
	C194.452148,100.285423 190.078522,94.933388 189.535156,86.637894 
	C188.872406,76.519791 197.854996,70.420479 207.877975,69.665680 
	C219.024094,68.826302 229.282150,72.304695 239.253540,76.585136 
	C261.589203,86.173241 284.258942,95.095779 305.107513,107.813362 
	C337.536682,127.595085 360.991974,154.792175 373.347168,191.028671 
	C374.556793,194.576401 375.820831,195.913788 380.109680,195.094528 
	C399.471558,191.395966 419.007172,190.798218 438.694580,192.357834 
	C461.103912,194.133102 482.652313,199.164871 503.470490,207.535187 
	C504.373627,207.898300 505.385345,207.991257 506.502380,208.245544 
	C508.770630,204.818771 508.722198,200.873856 509.158020,197.217651 
	C512.213257,171.588226 511.678040,146.385818 499.323242,122.761909 
	C494.535522,113.607162 488.838959,105.856468 478.401520,101.905090 
	C468.403992,98.120232 459.644653,91.756096 452.402710,83.703156 
	C447.302795,78.032135 443.294281,71.751350 443.656982,63.637932 
	C444.081421,54.143887 453.119995,47.164730 462.436035,49.015209 
	C470.770020,50.670616 477.674255,54.944653 483.356842,60.981560 
	C503.779022,82.677010 517.123474,108.322563 524.275024,137.105362 
	C530.471985,162.046066 529.630005,187.180435 524.622559,212.242798 
	C523.988586,215.415939 523.948853,217.602646 527.412415,219.580841 
	C563.946411,240.447281 584.390259,272.571289 592.282043,313.303589 
	C596.217468,333.615723 597.525085,354.153931 597.261047,374.811157 
	C597.239807,376.472504 597.317017,378.218933 596.845703,379.773346 
	C595.836609,383.100739 596.928345,385.354065 599.361328,387.698181 
	C612.521667,400.377960 620.763367,415.839661 623.000244,433.938263 
	C624.927490,449.532684 622.371704,464.751923 616.182251,479.315674 
	C604.626282,506.506653 585.055298,526.636597 560.801941,542.727295 
	C551.186768,549.106445 540.858032,554.129822 530.140625,559.220032 
M487.814178,274.686554 
	C464.904175,250.663940 437.484528,237.464096 403.688232,240.366043 
	C380.235809,242.379822 360.822723,253.084305 346.422394,271.316132 
	C319.222015,305.753632 314.996216,344.220673 328.913208,385.243439 
	C329.625854,387.344208 331.389526,389.235626 330.541962,391.899933 
	C328.907318,392.266846 327.308563,392.654205 325.697876,392.983002 
	C291.461060,399.971344 273.446747,430.022003 284.073883,463.320282 
	C290.863373,484.594025 303.946533,501.578796 322.024261,514.668335 
	C355.808014,539.130066 392.936676,555.694824 434.760864,559.358887 
	C471.338562,562.563416 506.283173,556.439270 538.558289,537.513062 
	C563.022095,523.167358 584.211792,505.767944 597.581604,480.204865 
	C605.384216,465.286255 609.641602,449.583557 606.518066,432.612427 
	C603.710754,417.359741 595.502075,405.329987 583.737305,395.528778 
	C581.981384,394.065948 579.816467,392.939606 580.007935,390.058105 
	C581.034912,374.599731 580.959106,359.168396 579.793457,343.692993 
	C578.514404,326.710419 575.799561,310.059235 570.403381,293.907288 
	C567.284546,284.572052 563.708984,275.362091 557.229797,267.732513 
	C548.369690,257.299438 537.336914,251.991669 523.587708,255.759323 
	C512.486694,258.801300 505.308258,266.860474 499.849640,276.649780 
	C498.583588,278.920319 497.987854,281.682709 495.552765,283.271210 
	C495.058380,283.048798 494.472351,282.966980 494.193237,282.630524 
	C492.175964,280.198669 490.220703,277.715424 487.814178,274.686554 
M252.411209,543.116394 
	C233.929291,528.845642 215.037460,515.049744 198.643356,497.682648 
	C201.266876,496.290436 202.946564,497.006653 204.554626,497.848083 
	C210.009155,500.702118 215.531906,503.442535 220.860382,506.517792 
	C244.075104,519.915771 264.578888,536.905029 284.253082,554.936279 
	C286.957062,557.414490 288.963654,557.875183 291.984833,555.732544 
	C295.507721,553.234070 299.252899,551.013367 303.053772,548.953003 
	C306.460693,547.106201 306.706696,545.152161 304.837860,541.796265 
	C282.294891,501.314880 255.163422,464.463135 219.443283,434.540863 
	C199.674896,417.981140 178.768585,403.376221 152.439896,398.794586 
	C133.967804,395.580078 115.273384,404.031036 106.313576,420.420715 
	C97.693649,436.188721 97.658165,453.066833 100.940712,469.967377 
	C106.416191,498.158356 121.499245,520.940247 142.656387,539.859863 
	C171.645340,565.782959 206.175125,580.084534 243.904022,587.512573 
	C246.688049,588.060669 249.011551,587.398254 251.215637,585.410278 
	C258.892181,578.486694 267.129700,572.268738 275.697510,566.479858 
	C276.836273,565.710449 278.488159,565.239075 278.680054,563.137817 
	C270.177246,556.643921 261.587341,550.083496 252.411209,543.116394 
M477.043762,798.534241 
	C488.958801,796.237305 500.833862,793.806335 512.230652,789.470520 
	C515.486633,788.231873 517.895508,786.396790 519.538330,783.171570 
	C526.052734,770.382385 531.625916,757.228271 535.609985,743.429260 
	C536.350952,740.862793 537.496765,738.300293 536.960510,735.289673 
	C521.120361,742.691467 504.644501,746.578796 487.708710,748.293945 
	C455.200348,751.585938 423.367401,747.739258 392.185913,738.179382 
	C368.308685,730.858887 346.009247,720.214355 325.298706,706.248474 
	C322.480804,704.348267 320.039948,702.628479 320.868134,698.316406 
	C323.070770,686.847839 321.382111,675.863098 315.776611,665.501587 
	C310.672729,656.067322 304.177673,647.628845 297.270020,639.511902 
	C295.104645,636.967468 294.826233,634.919434 296.176392,631.922424 
	C297.598602,628.765625 300.120117,625.760498 299.074951,621.221436 
	C293.563202,623.033325 288.961090,625.725525 284.647614,628.744324 
	C284.945740,631.481934 286.540619,633.029907 287.831757,634.726440 
	C294.081573,642.938293 300.345459,651.139526 306.625305,659.328430 
	C315.456573,670.844299 318.792175,684.233459 315.954376,697.995911 
	C310.121246,726.284973 297.570007,749.839905 266.618408,757.811523 
	C263.984589,758.489746 262.493896,759.965515 264.363525,763.025574 
	C276.340546,761.792175 286.110596,756.016418 294.953827,748.460205 
	C297.382782,746.384583 298.901459,745.885620 301.677094,748.118164 
	C314.690460,758.585388 328.812439,767.400208 343.662628,775.020081 
	C367.712769,787.360657 393.233246,795.177185 420.015900,798.418762 
	C433.167572,800.010437 446.410095,801.847778 459.778137,799.858215 
	C465.181366,799.054016 470.696411,799.001221 477.043762,798.534241 
M388.044830,671.369446 
	C408.510010,678.676514 429.674774,683.003723 451.272858,684.391663 
	C467.018250,685.403381 482.916473,685.695801 498.634979,683.474487 
	C512.132690,681.567078 525.437439,678.750244 538.107239,673.355896 
	C542.472351,671.497437 544.232422,668.968811 543.656555,664.269043 
	C542.223206,652.570374 540.541260,640.936157 537.772827,629.454468 
	C536.928589,625.953247 535.541504,625.702698 532.545776,626.718445 
	C502.517822,636.900696 471.770477,638.666931 440.515808,634.440063 
	C404.498657,629.569153 371.547638,617.366333 343.368378,593.815674 
	C341.108765,591.927185 339.725677,592.156311 337.386322,593.745544 
	C328.739380,599.619690 322.597839,607.169006 318.655182,616.974609 
	C316.699219,621.839172 316.679230,625.349487 320.426819,628.864319 
	C321.154266,629.546631 321.808044,630.307678 322.494507,631.033691 
	C340.550812,650.129028 362.858521,662.343079 388.044830,671.369446 
M243.499054,660.945740 
	C241.089844,657.155334 238.286560,653.551880 236.376328,649.524780 
	C234.237717,645.016357 231.831512,644.264099 227.408859,646.520386 
	C218.371353,651.130920 209.033890,655.122986 199.454483,658.516357 
	C197.470291,659.219299 195.535416,660.212219 193.608154,658.385254 
	C194.077164,656.307922 195.655807,655.582153 196.970886,654.612488 
	C205.461624,648.352051 214.921432,643.802002 224.404037,639.347473 
	C228.026367,637.645813 229.512680,635.461426 228.487198,631.542664 
	C226.398773,623.562134 227.809433,616.092834 231.809219,608.960632 
	C232.704315,607.364441 234.498734,605.897156 233.557480,603.560547 
	C231.678909,603.560547 229.819992,603.278625 228.074142,603.603821 
	C209.119492,607.134521 190.986832,612.981689 174.779312,623.711426 
	C160.495544,633.167542 148.412659,644.607544 143.139984,661.631042 
	C139.416550,673.652588 142.541458,685.251343 151.372818,691.738403 
	C159.235931,697.514282 168.173035,700.276917 177.896606,700.665894 
	C199.201477,701.517944 218.423920,694.437073 237.015396,685.080688 
	C242.762863,682.188171 248.574295,679.289307 253.592972,674.500977 
	C250.236664,670.018494 247.064804,665.782410 243.499054,660.945740 
M430.428284,860.786316 
	C434.796112,859.033142 439.332245,857.594299 443.391754,854.143494 
	C440.695160,853.941467 438.687347,853.641296 436.459442,853.929260 
	C420.064697,856.048584 403.661133,856.135925 387.246643,853.768494 
	C371.174530,851.450500 355.780884,846.870728 340.935760,840.406311 
	C336.917877,838.656738 334.592651,839.633728 333.443573,843.788757 
	C331.805756,849.711243 330.088928,855.604431 329.242920,861.722717 
	C328.251740,868.890991 328.242462,869.231812 335.329865,870.537354 
	C349.750183,873.193665 364.185150,874.351868 378.938721,872.870361 
	C396.439941,871.112915 413.373199,867.526794 430.428284,860.786316 
M262.898193,790.013611 
	C264.017822,809.807251 270.589081,827.337830 283.773102,842.147278 
	C286.835083,840.791382 286.684845,838.313904 287.282166,836.351501 
	C289.212646,830.009094 290.670502,823.509949 292.860077,817.263916 
	C294.253510,813.288940 293.416260,810.819397 290.190338,808.284729 
	C282.071289,801.905762 274.653625,794.764099 268.125183,786.721130 
	C266.824310,785.118408 265.613464,783.179504 262.662811,782.883057 
	C262.239502,785.017212 262.235870,787.082703 262.898193,790.013611 
M320.283508,535.011902 
	C323.091461,538.001831 324.749054,535.214539 327.443329,533.694397 
	C323.708923,531.163452 321.065155,528.103210 316.811707,526.968933 
	C316.878998,530.156616 318.819733,532.122925 320.283508,535.011902 
z"/>
<path fill="#000000" opacity="1.000000" stroke="none" 
	d="
M740.650574,591.067688 
	C740.662720,589.438721 740.592834,588.264648 740.700562,587.107056 
	C741.209106,581.646973 742.552979,580.796875 747.547424,582.700745 
	C747.703003,582.760071 747.855957,582.862305 748.014709,582.872437 
	C759.072021,583.578674 768.736023,589.464050 779.466003,591.342102 
	C785.361877,592.374084 791.031555,590.839722 796.658508,589.278442 
	C798.057129,588.890381 799.295105,587.826111 801.442139,588.354248 
	C802.154785,596.742554 799.262085,603.885376 793.452148,609.786621 
	C783.431152,619.965149 763.652893,622.028992 751.694275,614.192566 
	C743.603027,608.890381 740.277588,601.060669 740.650574,591.067688 
z"/>
<path fill="#000000" opacity="1.000000" stroke="none" 
	d="
M390.059448,479.682068 
	C385.901398,466.939606 384.895172,454.025970 383.546082,441.052063 
	C378.627838,441.004700 375.758209,444.122101 372.298737,445.916595 
	C370.470520,446.864899 368.471283,448.875214 366.442932,446.906738 
	C364.867584,445.378021 365.724945,443.182098 366.364594,441.253723 
	C369.067169,433.106079 376.662262,427.262482 385.388062,426.599091 
	C391.450043,426.138214 397.375275,426.541107 402.909790,429.328094 
	C404.964142,430.362579 407.594299,431.285522 407.405945,434.092438 
	C407.209473,437.019745 404.330811,436.547791 402.359406,437.126526 
	C401.897278,437.262207 401.474426,437.531738 399.911224,438.269012 
	C420.666321,457.166962 444.713287,467.778625 471.410645,472.555756 
	C498.258087,477.359741 524.424561,474.481049 549.641907,462.850372 
	C548.759094,468.348785 545.453369,471.488495 541.755066,474.237762 
	C536.905823,477.842682 531.552490,480.600128 525.729675,482.208252 
	C522.384094,483.132263 520.606506,484.893646 519.234863,488.183685 
	C512.144043,505.191284 501.144958,519.082397 485.720673,529.453674 
	C462.642334,544.971497 433.368256,539.636963 414.494171,521.937622 
	C402.202148,510.410583 395.256317,495.784637 390.059448,479.682068 
M473.521973,520.206970 
	C473.918671,518.512451 472.855438,517.361145 471.958435,516.191101 
	C464.477661,506.433685 455.027832,499.274994 443.259888,495.641602 
	C432.919830,492.449127 422.490784,492.405365 412.145569,496.260498 
	C412.318237,497.147644 412.348480,497.648254 412.519012,498.095428 
	C412.754547,498.713226 413.043213,499.324371 413.399445,499.880493 
	C420.327148,510.695068 429.521454,519.036438 441.667877,523.279297 
	C452.306244,526.995361 463.125702,527.284058 473.521973,520.206970 
z"/>
<path fill="#000000" opacity="1.000000" stroke="none" 
	d="
M513.760376,389.438110 
	C508.596680,371.015106 509.406647,353.279724 516.686096,335.914093 
	C518.906250,330.617798 522.116150,326.008667 526.356750,322.116913 
	C536.420288,312.881287 550.765747,313.842957 559.455383,324.407837 
	C566.170715,332.572327 568.770508,342.456726 569.864746,352.560394 
	C570.989746,362.947540 571.429871,373.516571 568.195496,383.739075 
	C566.002441,390.670349 562.902405,397.073608 556.317383,401.031128 
	C554.787476,401.950623 553.279907,402.969666 551.429443,402.689514 
	C550.385925,400.610870 552.026123,399.704529 552.755310,398.555176 
	C564.619568,379.854645 564.252075,360.159607 556.984802,340.197144 
	C554.477051,333.308411 549.835205,326.975464 541.745178,326.737030 
	C533.958557,326.507477 529.434814,332.513397 525.723450,338.684265 
	C524.451477,340.799133 523.196411,342.973663 522.873413,345.855072 
	C528.372253,344.391205 533.806274,343.294037 538.589905,347.204590 
	C544.397644,351.952362 546.286011,358.674316 547.313171,365.686157 
	C548.934875,376.756165 546.842102,387.135620 540.420532,396.912079 
	C549.725098,401.753021 555.778931,408.745422 557.289368,418.853088 
	C558.460754,426.691315 557.084167,434.070801 552.059204,440.534943 
	C544.374634,450.420502 526.318909,456.530914 518.962097,451.443359 
	C520.227905,448.301697 523.443237,447.748901 525.954651,446.469940 
	C532.655396,443.057343 538.224304,438.524109 541.867004,431.832031 
	C545.718262,424.756836 545.018616,418.882202 538.987732,413.503571 
	C530.377625,405.824738 519.900391,403.768738 508.748871,404.756317 
	C503.482788,405.222717 498.277374,406.354919 493.035278,407.122681 
	C491.425964,407.358398 489.720978,407.781738 488.224213,406.276123 
	C487.726776,403.355133 490.260254,402.397797 491.996399,401.134827 
	C497.739716,396.957031 504.432129,394.846283 511.147736,392.884735 
	C512.853455,392.386536 514.551941,392.243225 513.760376,389.438110 
z"/>
<path fill="#000000" opacity="1.000000" stroke="none" 
	d="
M415.821106,346.219910 
	C425.971100,360.983582 426.964935,376.349579 419.179413,391.792480 
	C411.809540,406.410889 394.608521,406.535980 385.940704,392.578857 
	C380.664490,384.083038 378.837402,374.598846 378.888275,364.894745 
	C378.945099,354.047455 380.721313,343.359131 385.634186,333.469269 
	C392.207733,320.236359 401.847229,311.128235 417.503265,310.672577 
	C434.210907,310.186249 445.252075,318.996857 451.985352,333.343506 
	C460.251221,350.955597 462.438599,369.388580 455.940674,388.104889 
	C452.689636,397.469086 447.044922,405.247345 437.519928,409.402924 
	C436.079193,410.031525 434.604309,411.208405 432.634155,409.597168 
	C433.769135,406.899902 436.640686,405.810333 438.366791,403.688446 
	C447.398987,392.585297 450.129120,379.578918 449.369598,365.782898 
	C448.760803,354.725159 446.199402,344.057617 439.402893,334.885040 
	C433.502655,326.922089 425.828125,321.525635 415.699493,322.636078 
	C404.604309,323.852539 397.773376,331.211304 393.198730,342.133240 
	C401.852722,339.142944 409.444061,339.096222 415.821106,346.219910 
z"/>
<path fill="#000000" opacity="1.000000" stroke="none" 
	d="
M391.347900,291.403381 
	C388.289185,293.926758 385.947266,298.669708 381.616699,295.429077 
	C377.349762,292.236115 380.279114,288.110352 382.067352,284.675018 
	C387.599640,274.047272 397.424957,269.463837 408.359711,266.768860 
	C416.170776,264.843719 423.843262,266.121399 431.307343,268.778412 
	C433.014740,269.386200 434.681122,270.208862 436.220612,271.166809 
	C438.906036,272.837769 440.282074,275.323578 438.894745,278.364319 
	C437.586731,281.231140 435.078156,281.279083 432.115601,280.816925 
	C417.187073,278.488037 403.323059,280.697449 391.347900,291.403381 
z"/>
<path fill="#000000" opacity="1.000000" stroke="none" 
	d="
M545.208252,276.249329 
	C555.870911,279.576691 563.727173,285.294312 566.690430,296.246582 
	C567.462585,299.100494 567.145813,301.698822 564.501343,303.243988 
	C561.548767,304.969177 560.427002,302.130096 559.036072,300.437164 
	C552.647156,292.661072 544.494690,288.569550 534.401184,288.302826 
	C531.557800,288.227753 528.444214,288.137238 527.791443,284.432526 
	C527.171082,280.912323 529.286377,278.916718 532.182617,277.418610 
	C536.241943,275.318787 540.466614,275.265045 545.208252,276.249329 
z"/>
</svg>