<svg width="55" height="55" viewBox="0 0 55 55" fill="none" xmlns="http://www.w3.org/2000/svg">
<path d="M27.5 0C12.32 0 0 12.32 0 27.5C0 42.68 12.32 55 27.5 55C42.68 55 55 42.68 55 27.5C55 12.32 42.68 0 27.5 0ZM18.48 18.26V43.395H11.605V18.26H18.48ZM19.03 11.33C19.03 13.585 17.215 15.4 15.015 15.4C12.815 15.4 11.055 13.585 11.055 11.33C11.055 9.13 12.815 7.315 15.015 7.315C17.215 7.315 19.03 9.13 19.03 11.33ZM45.87 27.94V43.395H38.995V30.58C38.995 22.88 29.865 23.485 29.865 30.58V43.395H23.045V18.26H29.865V22.33C33.055 16.39 45.87 15.95 45.87 27.94Z" fill="#6C6C6C"/>
</svg>
