<svg width="220" height="196" viewBox="0 0 220 196" fill="none" xmlns="http://www.w3.org/2000/svg">
  <g>
    <path d="M74 16C70 8 60 4 52 8C44 12 42 22 48 30C54 38 66 40 74 34" stroke="#000000" stroke-width="6" stroke-linecap="round"/>
    <path d="M146 16C150 8 160 4 168 8C176 12 178 22 172 30C166 38 154 40 146 34" stroke="#000000" stroke-width="6" stroke-linecap="round"/>
    <circle cx="48" cy="8" r="8" fill="#000000"/>
    <circle cx="172" cy="8" r="8" fill="#000000"/>

    <ellipse cx="38" cy="98" rx="38" ry="34" fill="#000000"/>
    <ellipse cx="182" cy="98" rx="38" ry="34" fill="#000000"/>

    <circle cx="110" cy="58" r="30" fill="#FACC15" stroke="#000000" stroke-width="6"/>
    <path d="M94 80C100 74 120 74 126 80L140 124C144 136 142 150 135 162C128 174 119 182 110 188C101 182 92 174 85 162C78 150 76 136 80 124L94 80Z" fill="#FACC15" stroke="#000000" stroke-width="6" stroke-linejoin="round"/>

    <path d="M82 112C92 108 128 108 138 112" stroke="#000000" stroke-width="6" stroke-linecap="round"/>
    <path d="M78 136C90 130 130 130 142 136" stroke="#000000" stroke-width="6" stroke-linecap="round"/>
    <path d="M84 158C94 152 126 152 136 158" stroke="#000000" stroke-width="6" stroke-linecap="round"/>
  </g>
</svg>
