<svg width="57" height="57" viewBox="0 0 57 57" fill="none" xmlns="http://www.w3.org/2000/svg">
<path d="M28.5 0C44.232 0 57 12.768 57 28.5C57 44.232 44.232 57 28.5 57C12.768 57 0 44.232 0 28.5C0 12.768 12.768 0 28.5 0ZM46.455 29.925C43.092 28.044 39.387 26.505 35.91 24.966C29.868 22.458 23.883 19.95 17.784 17.613C16.587 17.214 14.478 16.872 14.25 18.582C14.364 21.09 14.82 23.541 15.162 26.049C15.96 31.464 16.929 36.879 17.841 42.294C18.183 44.118 20.406 45.03 21.888 43.89C25.365 41.553 28.842 39.216 32.262 36.822C33.402 35.682 32.376 34.029 31.35 33.231C28.5 30.381 25.479 27.987 22.743 25.023C22.002 23.256 24.168 24.738 24.909 25.194C28.785 27.93 32.604 30.78 36.765 33.117C38.874 34.314 41.325 33.288 43.434 32.661C45.315 31.863 48.108 31.122 46.455 29.925Z" fill="#6C6C6C"/>
</svg>
