<svg width="64" height="64" viewBox="0 0 64 64" fill="none" xmlns="http://www.w3.org/2000/svg">
  <circle cx="32" cy="32" r="30" fill="#6B7280"/>
  <path d="M46.5 22.2C45.4 22.7 44.3 23 43.1 23.2C44.4 22.4 45.3 21.2 45.8 19.7C44.6 20.5 43.2 21 41.8 21.3C40.6 20.1 38.9 19.3 37.1 19.3C33.6 19.3 30.8 22.2 30.8 25.7C30.8 26.2 30.8 26.7 31 27.1C25.8 26.9 21.1 24.4 18 20.6C17.5 21.5 17.2 22.5 17.2 23.6C17.2 25.9 18.4 27.9 20.1 29.1C19.1 29 18.2 28.7 17.4 28.3V28.4C17.4 31.6 19.7 34.3 22.7 34.9C22.2 35 21.7 35.1 21.1 35.1C20.7 35.1 20.3 35.1 19.9 35C20.7 37.7 23.1 39.6 26 39.7C23.7 41.5 20.8 42.5 17.7 42.5C17.1 42.5 16.5 42.5 16 42.4C19 44.3 22.5 45.4 26.2 45.4C37.1 45.4 43.1 36.3 43.1 28.4V27.6C44.3 26.8 45.5 25.6 46.5 24.3C45.4 24.8 44.3 25.2 43.2 25.3C44.3 24.6 45.4 23.5 46.5 22.2Z" fill="white"/>
</svg>
