<?xml version="1.0" encoding="utf-8"?>
<svg width="24" height="24" viewBox="0 0 24 24" fill="none" xmlns="http://www.w3.org/2000/svg">
  <path d="M21.6 2L13.3 8.3L14.9 4.5L21.6 2Z" fill="#E17726"/>
  <path d="M2.40002 2L10.6 8.4L9.10002 4.5L2.40002 2Z" fill="#E27625"/>
  <path d="M18.7 16.8L16.5 20.4L21.2 21.8L22.5 16.9L18.7 16.8Z" fill="#E27625"/>
  <path d="M1.5 16.9L2.8 21.8L7.5 20.4L5.3 16.8L1.5 16.9Z" fill="#E27625"/>
  <path d="M7.3 10.7L5.9 12.8L10.5 13L10.3 8L7.3 10.7Z" fill="#E27625"/>
  <path d="M16.7 10.7L13.7 7.9L13.5 13L18.1 12.8L16.7 10.7Z" fill="#E27625"/>
  <path d="M7.5 20.4L10.2 19L7.9 17L7.5 20.4Z" fill="#E27625"/>
  <path d="M13.8 19L16.5 20.4L16.1 17L13.8 19Z" fill="#E27625"/>
  <path d="M16.5 20.4L13.8 19L14 20.9L14 21.8L16.5 20.4Z" fill="#D5BFB2"/>
  <path d="M7.5 20.4L10 21.8L10 20.9L10.2 19L7.5 20.4Z" fill="#D5BFB2"/>
  <path d="M10.1 15.7L7.9 15L9.4 14.2L10.1 15.7Z" fill="#233447"/>
  <path d="M13.9 15.7L14.6 14.2L16.1 15L13.9 15.7Z" fill="#233447"/>
  <path d="M7.5 20.4L7.9 16.8L5.3 16.9L7.5 20.4Z" fill="#CC6228"/>
  <path d="M16.1 16.8L16.5 20.4L18.7 16.9L16.1 16.8Z" fill="#CC6228"/>
  <path d="M18.1 12.8L13.5 13L13.9 15.7L14.6 14.2L16.1 15L18.1 12.8Z" fill="#CC6228"/>
  <path d="M7.9 15L9.4 14.2L10.1 15.7L10.5 13L5.9 12.8L7.9 15Z" fill="#CC6228"/>
  <path d="M5.9 12.8L7.9 17L7.9 15L5.9 12.8Z" fill="#E27525"/>
  <path d="M16.1 15L16.1 17L18.1 12.8L16.1 15Z" fill="#E27525"/>
  <path d="M10.5 13L10.1 15.7L10.6 18.6L10.8 14.7L10.5 13Z" fill="#E27525"/>
  <path d="M13.5 13L13.2 14.7L13.4 18.6L13.9 15.7L13.5 13Z" fill="#E27525"/>
  <path d="M13.9 15.7L13.4 18.6L13.8 19L16.1 17L16.1 15L13.9 15.7Z" fill="#F5841F"/>
  <path d="M7.9 15L7.9 17L10.2 19L10.6 18.6L10.1 15.7L7.9 15Z" fill="#F5841F"/>
  <path d="M14 21.8L14 20.9L13.8 20.7H10.2L10 20.9L10 21.8L7.5 20.4L8.4 21.1L10.1 22.3H13.8L15.6 21.1L16.5 20.4L14 21.8Z" fill="#C0AC9D"/>
  <path d="M13.8 19L13.4 18.6H10.6L10.2 19L10 20.9L10.2 20.7H13.8L14 20.9L13.8 19Z" fill="#161616"/>
  <path d="M22 8.2L22.7 4.8L21.6 2L13.8 7.8L16.7 10.7L21 12L22 11L21.6 10.6L22.3 9.9L21.8 9.4L22.5 8.8L22 8.2Z" fill="#763E1A"/>
  <path d="M1.3 4.8L2 8.2L1.5 8.8L2.2 9.4L1.7 9.9L2.4 10.6L2 11L3 12L7.3 10.7L10.2 7.8L2.4 2L1.3 4.8Z" fill="#763E1A"/>
  <path d="M21 12L16.7 10.7L18.1 12.8L16.1 17L18.7 16.9L22.5 16.9L21 12Z" fill="#F5841F"/>
  <path d="M7.3 10.7L3 12L1.5 16.9L5.3 16.9L7.9 17L5.9 12.8L7.3 10.7Z" fill="#F5841F"/>
  <path d="M13.5 13L13.8 7.8L14.9 4.5H9.1L10.2 7.8L10.5 13L10.6 14.7V18.6L10.6 18.6H13.4L13.4 18.6L13.4 14.7L13.5 13Z" fill="#F5841F"/>
</svg> 